<?xml version="1.0" standalone="no"?>
<!DOCTYPE svg PUBLIC "-//W3C//DTD SVG 20010904//EN"
 "http://www.w3.org/TR/2001/REC-SVG-20010904/DTD/svg10.dtd">
<svg version="1.0" xmlns="http://www.w3.org/2000/svg"
 width="512.000000pt" height="512.000000pt" viewBox="0 0 512.000000 512.000000"
 preserveAspectRatio="xMidYMid meet">
<metadata>
Created by potrace 1.11, written by Peter Selinger 2001-2013
</metadata>
<g transform="translate(0.000000,512.000000) scale(0.100000,-0.100000)"
fill="#000000" stroke="none">
<path d="M0 2560 l0 -2560 2560 0 2560 0 0 2560 0 2560 -2560 0 -2560 0 0
-2560z m3204 2038 c25 -8 59 -31 86 -58 83 -82 109 -167 117 -370 11 -295 -59
-601 -233 -1025 -61 -148 -267 -562 -414 -830 -253 -463 -340 -634 -363 -716
-55 -190 -58 -261 -13 -385 35 -95 50 -114 91 -114 101 0 363 144 614 337 45
35 84 63 86 61 6 -6 176 -441 173 -443 -2 -1 -57 -38 -123 -82 -370 -246 -704
-393 -894 -393 -272 0 -495 428 -541 1037 -45 583 159 1500 479 2156 209 429
426 694 654 797 34 15 73 30 87 33 51 9 154 7 194 -5z"/>
<path d="M2878 4045 c-71 -48 -173 -203 -253 -383 -165 -373 -295 -941 -295
-1287 l1 -90 55 100 c349 635 591 1296 582 1588 -3 90 -4 92 -28 95 -14 1 -41
-8 -62 -23z"/>
</g>
</svg>
